#!OML:ASF F:\VICON\USERDATA\INSTALL\rory3\rory3.ASF
:FULLY-SPECIFIED
:DEGREES
2458
root 0.218699 17.2227 -0.854292 20.6736 0.954871 2.20376
lowerback 12.1868 -0.763391 1.79816
upperback 5.84922 -0.711232 5.01441
thorax -0.658544 -0.38838 4.3095
lowerneck 9.2932 -9.64319 -21.8853
upperneck 9.97154 -16.762 26.833
head 5.6362 -8.73468 11.9332
rclavicle -1.98785e-014 -3.81667e-014
rhumerus -16.5202 19.8096 -78.9914
rradius 144.065
rwrist -50.6991
rhand 41.6814 20.0473
rfingers 7.12502
rthumb 63.7735 10.9522
lclavicle -1.98785e-014 -3.81667e-014
lhumerus -8.40435 -29.7421 86.7446
lradius 140.53
lwrist 65.6726
lhand 48.5205 44.4561
lfingers 7.12502
lthumb 68.9547 43.2625
rfemur -33.0826 4.87129 13.0777
rtibia 29.3561
rfoot -16.7428 -10.5248
rtoes -26.6571
lfemur -33.6697 -9.33632 -18.1236
ltibia 28.8473
lfoot -14.6588 7.37531
ltoes -16.157
2459
root 0.195779 17.2143 -0.860127 20.6141 1.02624 2.07045
lowerback 12.3134 -0.672904 1.69252
upperback 5.85734 -0.602955 4.75229
thorax -0.728557 -0.332349 4.08095
lowerneck 9.94509 -9.42965 -21.9011
upperneck 10.1534 -16.55 26.5092
head 5.48599 -8.67457 11.8848
rclavicle 7.95139e-016 -1.59028e-015
rhumerus -16.8355 19.8545 -79.3655
rradius 143.951
rwrist -50.7104
rhand 42.2421 20.0834
rfingers 7.12502
rthumb 64.2257 11.6679
lclavicle 7.95139e-016 -1.59028e-015
lhumerus -8.56422 -30.366 86.6583
lradius 140.633
lwrist 65.6394
lhand 48.2184 44.416
lfingers 7.12502
lthumb 68.7444 43.7835
rfemur -33.1243 4.78315 13.3628
rtibia 29.5243
rfoot -16.9433 -10.3716
rtoes -25.7834
lfemur -33.8723 -9.23051 -17.9251
ltibia 29.2915
lfoot -14.7254 7.30451
ltoes -16.219
2460
root 0.173411 17.209 -0.861163 20.5052 1.14079 1.92428
lowerback 12.3995 -0.626371 1.56834
upperback 5.96377 -0.559937 4.56312
thorax -0.667763 -0.311309 3.94702
lowerneck 10.2227 -9.24477 -22.0224
upperneck 10.4272 -16.3426 26.138
head 5.4385 -8.59335 11.8107
rclavicle -9.54166e-015 7.15625e-014
rhumerus -17.0203 20.0314 -79.6457
rradius 143.834
rwrist -50.5521
rhand 42.7066 20.3287
rfingers 7.12502
rthumb 64.5972 12.4952
lclavicle -9.54166e-015 7.15625e-014
lhumerus -8.52536 -30.7251 86.568
lradius 140.66
lwrist 65.5862
lhand 48.4003 44.3393
lfingers 7.12502
lthumb 68.8713 43.3704
rfemur -33.0531 4.6233 13.7012
rtibia 29.6445
rfoot -17.1642 -10.1896
rtoes -24.6745
lfemur -33.958 -9.16713 -17.7063
ltibia 29.6611
lfoot -14.849 7.30667
ltoes -16.9382
2461
root 0.149364 17.2058 -0.864955 20.3502 1.34418 1.71673
lowerback 12.524 -0.606974 1.52167
upperback 6.14292 -0.545118 4.3908
thorax -0.55 -0.303615 3.79092
lowerneck 10.143 -9.13645 -22.1547
upperneck 10.8073 -16.2114 25.8168
head 5.51382 -8.52472 11.7274
rclavicle -6.36111e-015 1.11319e-014
rhumerus -17.1349 20.0795 -79.8336
rradius 143.825
rwrist -50.4184
rhand 42.6014 20.366
rfingers 7.12502
rthumb 64.5133 12.3991
lclavicle -6.36111e-015 1.11319e-014
lhumerus -8.20993 -30.9584 86.3789
lradius 140.59
lwrist 65.5356
lhand 49.1656 44.4651
lfingers 7.12502
lthumb 69.3962 42.0349
rfemur -32.9209 4.51276 14.1187
rtibia 29.7286
rfoot -17.241 -10.1191
rtoes -24.26
lfemur -33.9782 -9.13611 -17.3869
ltibia 29.9491
lfoot -14.9217 7.2394
ltoes -17.6417
2462
root 0.126707 17.2028 -0.868796 20.262 1.55901 1.54735
lowerback 12.5957 -0.606905 1.46183
upperback 6.23766 -0.556055 4.17485
thorax -0.491377 -0.307446 3.59937
lowerneck 10.0388 -9.03991 -22.2199
upperneck 11.2308 -16.0921 25.4842
head 5.60343 -8.4584 11.6262
rclavicle 7.95139e-015 -1.51076e-014
rhumerus -17.2664 20.0109 -80.0185
rradius 143.824
rwrist -50.5049
rhand 42.4239 20.2335
rfingers 7.12502
rthumb 64.3715 12.0437
lclavicle 7.95139e-015 -1.51076e-014
lhumerus -7.97059 -31.0612 86.1956
lradius 140.556
lwrist 65.4586
lhand 49.7129 44.8163
lfingers 7.12502
lthumb 69.7626 41.2942
rfemur -32.8373 4.42145 14.4673
rtibia 29.7539
rfoot -17.3688 -10.0575
rtoes -23.6094
lfemur -34.043 -9.17288 -17.0822
ltibia 30.1364
lfoot -14.9339 7.22193
ltoes -18.3113
2463
root 0.10536 17.2015 -0.866854 20.2126 1.70414 1.49641
lowerback 12.5953 -0.58906 1.26625
upperback 6.2576 -0.559234 3.90166
thorax -0.472487 -0.308771 3.42301
lowerneck 10.005 -8.94006 -22.2498
upperneck 11.6209 -15.9728 25.1708
head 5.67002 -8.39703 11.5306
rclavicle 7.15625e-015 -2.78299e-014
rhumerus -17.4607 19.799 -80.1032
rradius 143.862
rwrist -50.7563
rhand 42.533 20.1095
rfingers 7.12502
rthumb 64.4587 12.0566
lclavicle 7.15625e-015 -2.78299e-014
lhumerus -7.95474 -31.1359 86.1261
lradius 140.561
lwrist 65.4148
lhand 49.9503 45.0137
lfingers 7.12502
lthumb 69.9191 41.0054
rfemur -32.7493 4.32406 14.6555
rtibia 29.7273
rfoot -17.4838 -9.93559
rtoes -22.7581
lfemur -34.0586 -9.26501 -16.9004
ltibia 30.2025
lfoot -14.9439 7.17731
ltoes -18.1853
2464
root 0.0816389 17.206 -0.857659 20.1047 1.84439 1.43446
lowerback 12.5593 -0.550829 0.970219
upperback 6.30417 -0.548333 3.64302
thorax -0.405918 -0.30586 3.31671
lowerneck 9.90835 -8.88331 -22.2297
upperneck 11.947 -15.8918 24.8857
head 5.73758 -8.34978 11.4268
rclavicle -1.59028e-015 -3.18055e-015
rhumerus -17.6112 19.5215 -80.1709
rradius 143.848
rwrist -50.8812
rhand 42.5966 20.0587
rfingers 7.12502
rthumb 64.5095 12.0859
lclavicle -1.59028e-015 -3.18055e-015
lhumerus -7.93275 -31.2292 86.0383
lradius 140.558
lwrist 65.3952
lhand 50.4176 45.1498
lfingers 7.12502
lthumb 70.2226 40.1614
rfemur -32.522 4.21133 14.8864
rtibia 29.6203
rfoot -17.4629 -9.88467
rtoes -22.3968
lfemur -33.9229 -9.35097 -16.7125
ltibia 30.1851
lfoot -14.98 7.11045
ltoes -17.8361
